<svg xmlns="http://www.w3.org/2000/svg" xmlns:xlink="http://www.w3.org/1999/xlink" width="345" zoomAndPan="magnify" viewBox="0 0 258.75 363.74999" height="485" preserveAspectRatio="xMidYMid meet" version="1.0"><defs><clipPath id="75377470b6"><path d="M 0 0.0507812 L 258.5 0.0507812 L 258.5 363.449219 L 0 363.449219 Z M 0 0.0507812 " clip-rule="nonzero"/></clipPath><clipPath id="459618314c"><path d="M 12.925781 12.976562 L 245.574219 12.976562 L 245.574219 350.523438 L 12.925781 350.523438 Z M 12.925781 12.976562 " clip-rule="nonzero"/></clipPath><clipPath id="5eba7fa194"><path d="M 0 0.0507812 L 258.5 0.0507812 L 258.5 363.449219 L 0 363.449219 Z M 0 0.0507812 " clip-rule="nonzero"/></clipPath></defs><g clip-path="url(#75377470b6)"><path fill="#ffffff" d="M 0 0.0507812 L 258.5 0.0507812 L 258.5 363.449219 L 0 363.449219 Z M 0 0.0507812 " fill-opacity="1" fill-rule="nonzero"/><path fill="#ffffff" d="M 0 0.0507812 L 258.5 0.0507812 L 258.5 363.449219 L 0 363.449219 Z M 0 0.0507812 " fill-opacity="1" fill-rule="nonzero"/></g><g clip-path="url(#459618314c)"><path stroke-linecap="butt" transform="matrix(0.749276, 0, 0, 0.749276, 12.925012, 12.975688)" fill="none" stroke-linejoin="miter" d="M 0.00102729 0.00116656 L 310.498665 0.00116656 L 310.498665 450.498528 L 0.00102729 450.498528 Z M 0.00102729 0.00116656 " stroke="#0075fa" stroke-width="10" stroke-opacity="1" stroke-miterlimit="4"/></g><g clip-path="url(#5eba7fa194)"><path stroke-linecap="butt" transform="matrix(0.423703, 0.617973, -0.617973, 0.423703, 16.549398, 14.517001)" fill="none" stroke-linejoin="miter" d="M -0.00195876 2.000199 L 537.814408 1.999393 " stroke="#0075fa" stroke-width="4" stroke-opacity="1" stroke-miterlimit="4"/><path stroke-linecap="butt" transform="matrix(-0.423703, 0.617973, -0.617973, -0.423703, 244.422271, 16.211812)" fill="none" stroke-linejoin="miter" d="M -0.00212318 1.999556 L 537.814243 2.000362 " stroke="#0075fa" stroke-width="4" stroke-opacity="1" stroke-miterlimit="4"/></g></svg>